<svg width="9" height="9" viewBox="0 0 9 9" fill="none" xmlns="http://www.w3.org/2000/svg">
<g clip-path="url(#clip0_8_60)">
<path d="M3.70421 6.79575C3.80869 6.90029 3.93274 6.98322 4.06928 7.03981C4.20582 7.09639 4.35216 7.12551 4.49996 7.12551C4.64776 7.12551 4.79411 7.09639 4.93065 7.03981C5.06719 6.98322 5.19124 6.90029 5.29571 6.79575L6.49984 5.59163C6.5644 5.52022 6.59903 5.42673 6.59656 5.3305C6.59409 5.23427 6.5547 5.14267 6.48656 5.07468C6.41842 5.00668 6.32675 4.96749 6.23051 4.96523C6.13427 4.96296 6.04085 4.99779 5.96959 5.0625L4.87234 6.16013L4.87496 0.375C4.87496 0.275544 4.83545 0.180161 4.76513 0.109835C4.6948 0.0395088 4.59942 0 4.49996 0C4.40051 0 4.30512 0.0395088 4.2348 0.109835C4.16447 0.180161 4.12496 0.275544 4.12496 0.375L4.12159 6.153L3.03034 5.0625C2.95997 4.99218 2.86456 4.9527 2.76508 4.95274C2.6656 4.95277 2.57022 4.99232 2.4999 5.06269C2.42958 5.13305 2.3901 5.22847 2.39014 5.32795C2.39017 5.42742 2.42972 5.52281 2.50009 5.59313L3.70421 6.79575Z" fill="#3C6E71"/>
<path d="M8.625 6C8.52554 6 8.43016 6.03951 8.35983 6.10983C8.28951 6.18016 8.25 6.27554 8.25 6.375V7.875C8.25 7.97446 8.21049 8.06984 8.14017 8.14017C8.06984 8.21049 7.97446 8.25 7.875 8.25H1.125C1.02554 8.25 0.930161 8.21049 0.859835 8.14017C0.789509 8.06984 0.75 7.97446 0.75 7.875V6.375C0.75 6.27554 0.710491 6.18016 0.640165 6.10983C0.569839 6.03951 0.474456 6 0.375 6C0.275544 6 0.180161 6.03951 0.109835 6.10983C0.0395088 6.18016 0 6.27554 0 6.375L0 7.875C0 8.17337 0.118526 8.45952 0.329505 8.6705C0.540483 8.88147 0.826631 9 1.125 9H7.875C8.17337 9 8.45952 8.88147 8.6705 8.6705C8.88147 8.45952 9 8.17337 9 7.875V6.375C9 6.27554 8.96049 6.18016 8.89017 6.10983C8.81984 6.03951 8.72446 6 8.625 6Z" fill="#3C6E71"/>
</g>
<defs>
<clipPath id="clip0_8_60">
<rect width="9" height="9" fill="white"/>
</clipPath>
</defs>
</svg>
