<svg width="26" height="26" viewBox="0 0 26 26" fill="none" xmlns="http://www.w3.org/2000/svg">
<g clip-path="url(#clip0_8_98)">
<path fill-rule="evenodd" clip-rule="evenodd" d="M13 0.320666C5.82075 0.320666 0 6.14033 0 13.3207C0 19.0645 3.7245 23.9373 8.88983 25.6566C9.53983 25.7768 9.77817 25.3749 9.77817 25.0315C9.77817 24.7217 9.76625 23.6979 9.76083 22.6113C6.14467 23.3978 5.38092 21.0773 5.38092 21.0773C4.78942 19.5747 3.93792 19.175 3.93792 19.175C2.75817 18.3679 4.02675 18.3853 4.02675 18.3853C5.33217 18.4773 6.019 19.7253 6.019 19.7253C7.17817 21.7122 9.05992 21.138 9.802 20.8054C9.919 19.9648 10.2559 19.3917 10.6275 19.0667C7.74042 18.7384 4.70492 17.6237 4.70492 12.6425C4.70492 11.2233 5.213 10.0631 6.045 9.15308C5.90958 8.82483 5.46433 7.50317 6.17067 5.71242C6.17067 5.71242 7.26267 5.36358 9.74675 7.04492C10.7835 6.75675 11.895 6.61267 13 6.60725C14.105 6.61267 15.2176 6.75675 16.2565 7.04492C18.7373 5.3625 19.8283 5.71242 19.8283 5.71242C20.5357 7.50317 20.0904 8.82483 19.9561 9.15308C20.7892 10.0631 21.294 11.2233 21.294 12.6425C21.294 17.6356 18.2531 18.7352 15.3584 19.0569C15.8243 19.4599 16.2403 20.2518 16.2403 21.4641C16.2403 23.2039 16.2251 24.6036 16.2251 25.0315C16.2251 25.3771 16.4591 25.7833 17.1178 25.6555C22.2809 23.9341 26.0011 19.0634 26.0011 13.3217C26 6.14142 20.1793 0.320666 13 0.320666Z" fill="#D9D9D9"/>
<path d="M4.92379 18.9865C4.89562 19.0515 4.79379 19.071 4.70062 19.0266C4.60637 18.9843 4.55329 18.8955 4.58362 18.8316C4.61179 18.7655 4.71362 18.7471 4.80787 18.7915C4.90212 18.8327 4.95629 18.9215 4.92379 18.9865Z" fill="#D9D9D9"/>
<path d="M5.4502 19.5737C5.38845 19.6311 5.26712 19.604 5.18479 19.5141C5.0992 19.4231 5.08404 19.3017 5.14687 19.2443C5.21079 19.1869 5.32779 19.214 5.41337 19.305C5.49895 19.3949 5.5152 19.5152 5.4502 19.5737Z" fill="#D9D9D9"/>
<path d="M5.96262 20.3223C5.88245 20.3775 5.75245 20.3255 5.67228 20.2107C5.59212 20.0947 5.59212 19.9561 5.67445 19.9008C5.75462 19.8456 5.88353 19.8954 5.96478 20.0103C6.04387 20.1273 6.04387 20.2659 5.96262 20.3223Z" fill="#D9D9D9"/>
<path d="M6.66462 21.0459C6.59312 21.125 6.44145 21.1033 6.33095 20.9961C6.2172 20.891 6.18578 20.7426 6.25728 20.6635C6.32987 20.5844 6.48262 20.6072 6.5942 20.7133C6.70687 20.8184 6.74045 20.9679 6.66462 21.0459Z" fill="#D9D9D9"/>
<path d="M7.63421 21.4652C7.60279 21.567 7.45654 21.6136 7.30921 21.5702C7.16188 21.5258 7.06546 21.4067 7.09579 21.3038C7.12613 21.2008 7.27346 21.1532 7.42187 21.1997C7.56812 21.2431 7.66454 21.3622 7.63421 21.4652Z" fill="#D9D9D9"/>
<path d="M8.69804 21.5432C8.70129 21.6504 8.5767 21.7392 8.42179 21.7414C8.26687 21.7447 8.14012 21.658 8.13904 21.5529C8.13904 21.4446 8.26145 21.3568 8.41637 21.3536C8.57129 21.3503 8.69804 21.437 8.69804 21.5432Z" fill="#D9D9D9"/>
<path d="M9.68819 21.3753C9.70661 21.4793 9.59936 21.5876 9.44552 21.6157C9.29494 21.6439 9.15519 21.5789 9.13569 21.4749C9.11727 21.3677 9.22669 21.2604 9.37727 21.2323C9.53002 21.2052 9.66869 21.268 9.68819 21.3753Z" fill="#D9D9D9"/>
</g>
<defs>
<clipPath id="clip0_8_98">
<rect width="26" height="26" fill="white"/>
</clipPath>
</defs>
</svg>
