<svg width="27" height="27" viewBox="0 0 27 27" fill="none" xmlns="http://www.w3.org/2000/svg">
<g clip-path="url(#clip0_8_108)">
<path d="M25.8773 24.282H26.1327L25.6433 23.5417C25.9425 23.5417 26.1012 23.3516 26.1034 23.1187C26.1034 23.1097 26.1034 23.0996 26.1023 23.0906C26.1023 22.7734 25.911 22.6215 25.5184 22.6215H24.8839V24.282H25.1224V23.5586H25.416L25.8773 24.282ZM25.3992 23.3707H25.1224V22.8094H25.4734C25.6545 22.8094 25.8615 22.8386 25.8615 23.076C25.8615 23.3482 25.6534 23.3707 25.3992 23.3707Z" fill="#D9D9D9"/>
<path d="M19.4524 21.4571H16.0695V16.1595C16.0695 14.8961 16.047 13.2705 14.31 13.2705C12.5483 13.2705 12.2782 14.6464 12.2782 16.0684V21.4571H8.8965V10.5626H12.1444V12.051H12.1894C12.852 10.9192 14.0827 10.2431 15.3934 10.2915C18.8224 10.2915 19.4535 12.5471 19.4535 15.48L19.4524 21.4571ZM5.07937 9.07312C3.99487 9.07312 3.11625 8.1945 3.11625 7.11C3.11625 6.0255 3.99487 5.14687 5.07937 5.14687C6.16387 5.14687 7.0425 6.0255 7.0425 7.11C7.0425 8.1945 6.16387 9.07312 5.07937 9.07312ZM6.77025 21.4571H3.384V10.5626H6.77025V21.4571ZM21.1388 2.00587H1.68412C0.765 1.99575 0.01125 2.73262 0 3.65175V23.1862C0.01125 24.1065 0.765 24.8434 1.68412 24.8332H21.1388C22.0601 24.8445 22.8172 24.1076 22.8296 23.1862V3.65062C22.8161 2.72925 22.059 1.99237 21.1388 2.00475" fill="#D9D9D9"/>
<path d="M25.4284 21.8824C24.5689 21.8902 23.8782 22.5945 23.8872 23.454C23.895 24.3135 24.5993 25.0042 25.4588 24.9952C26.3183 24.9874 27.009 24.2831 27 23.4236C26.9922 22.5754 26.3059 21.8902 25.4588 21.8824H25.4284ZM25.4644 24.8164C24.7107 24.8287 24.0537 24.2291 24.0413 23.4754C24.0289 22.7216 24.6297 22.1006 25.3834 22.0882C26.1372 22.0759 26.7582 22.6766 26.7705 23.4304C26.7705 23.4382 26.7705 23.445 26.7705 23.4529C26.7863 24.1897 26.2013 24.8006 25.4644 24.8164H25.4295H25.4644Z" fill="#D9D9D9"/>
</g>
<defs>
<clipPath id="clip0_8_108">
<rect width="27" height="27" fill="white"/>
</clipPath>
</defs>
</svg>
